<?xml version="1.0" standalone="no"?>
<!DOCTYPE svg PUBLIC "-//W3C//DTD SVG 20010904//EN"
 "http://www.w3.org/TR/2001/REC-SVG-20010904/DTD/svg10.dtd">
<svg version="1.0" xmlns="http://www.w3.org/2000/svg"
 width="460.000000pt" height="460.000000pt" viewBox="0 0 460.000000 460.000000"
 preserveAspectRatio="xMidYMid meet">

<g transform="translate(0.000000,460.000000) scale(0.100000,-0.100000)"
fill="#000000" stroke="none">
<path d="M1995 4359 c-181 -14 -384 -54 -400 -79 -3 -6 -11 -10 -16 -10 -6 0
-8 4 -4 9 13 22 -18 17 -140 -23 -129 -43 -196 -72 -246 -107 -26 -18 -27 -18
-41 3 -14 20 -18 21 -54 10 -65 -19 -146 -74 -190 -128 -46 -57 -59 -107 -49
-192 4 -37 2 -51 -8 -55 -15 -6 -97 -168 -97 -191 0 -8 5 -16 11 -18 7 -2 0
-36 -21 -93 -30 -83 -33 -102 -38 -247 -3 -116 -2 -158 7 -158 8 0 10 -18 5
-65 l-7 -64 37 -17 c41 -20 48 -50 16 -77 -11 -9 -20 -29 -20 -44 0 -65 -12
-103 -32 -103 -11 0 -22 -9 -25 -20 -4 -14 -14 -20 -34 -20 -33 0 -49 -27 -49
-80 0 -23 6 -31 24 -36 14 -3 29 -3 34 0 6 4 6 -8 0 -32 -23 -89 -23 -91 11
-103 17 -6 36 -19 41 -30 6 -10 27 -23 48 -29 36 -11 38 -14 55 -87 27 -109
33 -123 58 -123 11 0 64 -22 118 -48 53 -27 106 -51 118 -54 20 -5 22 -11 17
-40 -4 -18 -13 -45 -21 -61 -13 -26 -12 -28 12 -39 18 -8 25 -19 25 -41 0 -28
-2 -29 -32 -23 -18 4 -71 14 -118 22 -99 18 -103 15 -113 -67 -4 -28 -13 -64
-22 -81 -26 -53 -15 -64 110 -104 86 -28 116 -42 125 -59 22 -41 -4 -55 -104
-55 -125 0 -130 -4 -161 -103 -36 -120 -36 -119 43 -156 38 -17 72 -31 76 -31
5 0 30 -10 57 -22 43 -20 49 -27 49 -54 0 -42 -16 -58 -80 -85 -63 -26 -115
-63 -125 -87 -4 -9 -13 -57 -21 -107 -20 -120 -27 -130 -116 -150 -82 -18
-102 -32 -118 -81 -6 -18 -20 -36 -31 -39 -24 -8 -45 -40 -52 -82 -5 -26 -2
-35 13 -43 28 -15 25 -32 -10 -68 -33 -35 -40 -81 -15 -102 22 -18 18 -39 -9
-46 -38 -9 -64 -44 -95 -132 -17 -45 -33 -87 -36 -92 -4 -6 42 -10 127 -9 73
0 127 3 120 6 -6 2 -12 11 -12 18 0 21 -59 36 -112 29 -58 -8 -68 12 -10 21
20 4 44 9 52 11 8 2 28 -3 44 -11 15 -8 41 -15 57 -15 26 0 28 -2 19 -26 -13
-34 -13 -34 10 -34 11 0 23 8 27 18 107 298 243 570 322 640 49 44 140 102
201 128 38 17 60 33 60 43 0 10 3 12 8 5 4 -5 57 -20 117 -33 228 -47 484
-208 641 -403 32 -40 83 -104 115 -143 31 -38 66 -90 79 -115 13 -25 31 -52
41 -61 16 -14 16 -17 3 -31 -16 -16 -9 -48 11 -48 7 0 16 6 18 13 4 10 6 10 6
0 1 -8 14 -13 31 -13 25 0 30 4 30 25 0 13 -7 28 -16 33 -10 6 -16 26 -18 59
-2 31 -12 65 -26 89 -39 64 -139 205 -188 264 -64 77 -284 300 -296 300 -5 0
-28 -19 -49 -42 l-40 -43 33 49 c26 39 30 50 19 57 -8 5 -72 32 -144 60 -154
61 -277 89 -307 70 -15 -9 -18 -9 -13 0 6 9 -4 10 -41 4 -105 -15 -245 -113
-336 -234 l-50 -68 -33 36 -33 36 20 28 c15 21 17 31 9 41 -13 16 22 160 45
186 7 9 46 31 86 50 40 19 77 41 81 48 7 10 17 101 21 195 1 22 6 27 27 27 14
0 40 -11 59 -25 40 -30 55 -33 21 -5 -29 25 -38 25 196 5 239 -21 390 -41 536
-71 67 -14 132 -26 144 -27 14 -1 23 -9 23 -19 0 -30 21 -118 28 -116 4 1 14
-1 22 -5 8 -3 62 -15 120 -27 179 -37 197 -51 294 -246 52 -104 77 -169 105
-272 l20 -73 -41 -37 c-22 -20 -47 -41 -54 -45 -8 -4 -14 -24 -14 -44 0 -52
62 -263 78 -263 16 0 15 29 -2 82 -18 55 -36 171 -28 180 11 11 155 56 192 60
35 3 35 3 53 -57 59 -196 81 -257 94 -262 8 -3 17 -3 20 1 4 3 -11 67 -31 141
-29 103 -36 138 -27 149 6 7 9 26 6 42 -8 46 22 72 94 82 59 8 80 16 69 27 -3
3 -32 2 -64 -1 -45 -6 -65 -14 -84 -33 -14 -15 -34 -25 -45 -23 -17 2 -20 11
-21 62 -1 68 -5 76 -32 61 -13 -7 -23 -7 -32 2 -10 9 -12 9 -8 -3 3 -8 17 -16
31 -18 16 -2 27 -9 27 -19 0 -11 -7 -14 -26 -10 -19 3 -24 1 -20 -10 3 -8 6
-16 6 -17 0 -2 11 -1 25 2 15 2 25 0 25 -7 0 -6 -11 -11 -25 -11 -31 0 -33
-17 -2 -23 15 -4 12 -5 -8 -4 -29 2 -30 4 -47 87 -23 116 -83 321 -115 393
-22 49 -24 60 -12 68 30 19 52 6 29 -17 -7 -7 -7 -21 1 -43 9 -27 15 -32 34
-27 12 3 25 3 28 -1 10 -10 -14 -34 -26 -26 -7 4 -8 0 -4 -11 4 -10 7 -20 7
-23 0 -3 7 0 15 7 9 7 19 10 23 6 4 -4 -1 -14 -12 -21 -24 -18 -13 -34 20 -27
19 3 25 1 20 -7 -4 -6 -14 -11 -22 -11 -8 0 -14 -4 -14 -10 0 -5 12 -10 26
-10 16 0 24 -5 21 -12 -2 -7 -14 -13 -26 -12 -12 0 -20 -4 -18 -10 2 -6 16
-10 31 -8 14 1 26 -2 26 -8 0 -5 -9 -10 -20 -10 -21 0 -25 -7 -11 -28 6 -10
10 -10 21 2 7 9 16 13 21 10 14 -9 10 -34 -5 -34 -8 0 -18 -5 -22 -11 -5 -9 1
-10 20 -5 32 8 37 -17 6 -34 -14 -8 -20 -8 -20 0 0 6 -4 9 -10 5 -19 -12 2
-34 30 -32 15 1 26 5 23 10 -2 4 25 21 62 38 49 24 69 29 78 20 8 -8 8 -11 -1
-11 -10 0 -10 -5 -2 -20 6 -12 15 -40 19 -63 6 -37 10 -42 31 -40 71 6 71 5
110 -182 26 -127 22 -149 -35 -170 -62 -24 -141 -115 -100 -115 8 0 15 4 15 9
0 6 16 22 35 37 l36 27 41 -39 c41 -39 42 -34 6 18 -15 22 -16 28 -5 28 15 0
55 -35 74 -66 11 -18 12 -18 12 5 1 14 -12 36 -32 55 -30 28 -33 34 -24 61 5
17 14 36 20 43 13 17 37 15 37 -3 0 -8 -7 -15 -15 -15 -20 0 -19 -16 1 -24 8
-3 12 -2 9 3 -3 6 2 14 11 19 27 15 10 44 -23 40 -23 -2 -28 1 -31 22 -5 50
-44 225 -53 243 -7 12 -22 17 -58 17 l-49 0 -4 37 c-3 21 -1 56 4 78 14 61 2
99 -43 140 -50 45 -101 67 -143 64 -37 -4 -43 12 -11 26 28 12 112 109 141
161 24 42 18 84 -11 84 -8 0 -15 6 -15 14 0 8 -12 29 -27 47 l-27 32 24 -13
c14 -7 36 -21 51 -31 16 -11 30 -14 39 -9 9 5 27 2 48 -9 29 -15 41 -16 91 -5
31 6 66 16 76 22 11 6 28 13 38 16 26 8 32 34 12 56 -15 16 -15 22 -3 38 24
34 74 87 94 98 16 10 19 22 17 75 -1 42 3 69 12 79 7 8 15 22 17 30 2 8 34 62
72 120 164 252 277 548 321 838 20 133 20 401 0 535 -50 330 -187 640 -400
902 -38 48 -74 95 -79 104 -10 18 -19 25 -150 99 -160 91 -405 173 -629 212
-97 16 -387 43 -422 38 -5 0 -59 -5 -120 -9z m198 -16 c-29 -2 -78 -2 -110 0
-32 2 -8 3 52 3 61 0 87 -1 58 -3z m-220 -10 c-13 -2 -35 -2 -50 0 -16 2 -5 4
22 4 28 0 40 -2 28 -4z m370 0 c-13 -2 -33 -2 -45 0 -13 2 -3 4 22 4 25 0 35
-2 23 -4z m-496 -9 c-3 -3 -12 -4 -19 -1 -8 3 -5 6 6 6 11 1 17 -2 13 -5z
m521 -30 c46 -13 19 -22 -90 -28 -151 -9 -272 -25 -336 -43 -30 -8 -56 -12
-59 -9 -3 3 7 15 21 28 l27 23 -98 -3 c-79 -3 -96 -1 -86 9 27 27 152 38 378
34 121 -3 230 -8 243 -11z m339 -20 c-3 -3 -12 -4 -19 -1 -8 3 -5 6 6 6 11 1
17 -2 13 -5z m-1215 -64 c-24 -50 -27 -65 -26 -160 0 -89 4 -115 26 -172 32
-82 94 -174 162 -244 51 -51 51 -52 116 -52 134 -2 463 -73 519 -111 14 -10
48 -31 74 -46 58 -32 169 -135 226 -209 38 -49 101 -194 101 -233 0 -9 -10
-28 -22 -41 -22 -23 -23 -32 -23 -190 -1 -92 -2 -189 -3 -216 l-2 -50 -28 27
c-16 15 -39 29 -52 32 -29 6 -26 1 -33 63 -6 49 -5 52 16 52 40 0 51 16 48 66
-1 30 -46 46 -117 42 l-58 -3 -9 -38 c-12 -49 3 -67 54 -67 36 0 38 -2 44 -37
4 -21 11 -50 17 -65 9 -25 14 -29 33 -27 3 0 20 -11 36 -25 17 -15 34 -26 39
-26 14 0 23 -79 11 -94 -13 -15 -82 -28 -341 -61 -107 -14 -222 -30 -255 -36
-33 -5 -118 -16 -188 -23 -121 -13 -131 -12 -167 5 -46 22 -50 23 -50 7 0 -7
14 -21 32 -31 l31 -18 -38 -39 c-47 -48 -92 -54 -128 -17 -13 12 -67 101 -122
197 -54 96 -103 180 -108 185 -7 7 -8 6 -3 -2 4 -7 -2 -13 -16 -15 -22 -3 -23
-7 -20 -67 1 -44 -2 -69 -12 -80 -8 -9 -21 -33 -29 -53 -9 -21 -20 -38 -24
-38 -4 1 -32 9 -62 19 -51 18 -75 37 -65 52 2 4 20 59 39 121 l35 113 -27 23
c-20 18 -33 22 -56 18 -27 -5 -275 46 -302 62 -5 3 1 9 15 12 20 5 26 13 28
43 2 26 8 37 20 38 9 1 0 6 -21 11 -48 13 -43 32 9 36 21 1 71 9 111 18 116
25 142 68 123 208 -13 90 -47 226 -72 291 -39 98 -88 313 -87 378 l1 62 13
-70 c8 -38 19 -96 25 -128 6 -32 38 -137 70 -234 60 -176 89 -299 91 -377 0
-37 1 -39 10 -16 16 39 -6 145 -72 345 -89 273 -102 341 -105 532 l-3 162 52
42 c74 59 147 95 158 77 5 -7 9 -16 9 -19 0 -8 -42 -45 -67 -58 -25 -13 -31
-41 -9 -41 10 0 11 -10 3 -49 -20 -101 30 -261 79 -253 10 2 57 21 104 42 47
21 96 42 111 45 23 6 25 4 25 -27 0 -52 57 -164 93 -182 42 -22 49 -20 17 5
-24 19 -112 176 -104 185 2 2 28 -33 58 -78 93 -137 187 -198 315 -204 l70 -4
-85 23 c-134 35 -217 99 -319 245 -48 67 -45 66 -121 35 -31 -12 -36 -12 -47
3 -12 16 -17 16 -65 2 -29 -8 -61 -19 -70 -22 -14 -6 -20 2 -32 45 -16 54 -21
136 -10 177 4 14 14 22 28 22 12 0 31 6 42 14 19 14 19 15 0 29 -18 13 -17 16
25 44 24 17 64 41 89 53 46 23 243 100 247 96 1 -1 -10 -26 -25 -56z m208 52
c0 -17 -25 -32 -52 -32 -36 0 -36 15 0 28 34 13 52 14 52 4z m1047 2 c-3 -3
-12 -4 -19 -1 -8 3 -5 6 6 6 11 1 17 -2 13 -5z m223 -74 c8 -5 11 -10 5 -10
-5 0 -17 5 -25 10 -8 5 -10 10 -5 10 6 0 17 -5 25 -10z m-150 -10 c0 -5 -4
-10 -9 -10 -6 0 -13 5 -16 10 -3 6 1 10 9 10 9 0 16 -4 16 -10z m150 -39 c109
-45 250 -144 250 -177 0 -18 -25 -6 -123 60 -37 25 -103 64 -147 87 -75 39
-98 59 -66 59 8 0 46 -13 86 -29z m164 -28 c122 -63 182 -116 286 -253 173
-227 273 -449 336 -740 44 -204 44 -530 -1 -745 -29 -141 -46 -191 -68 -201
-12 -5 -33 -39 -53 -84 -17 -41 -50 -95 -72 -120 -30 -35 -44 -63 -57 -115
-10 -39 -22 -78 -27 -88 -5 -10 -7 -21 -4 -24 8 -8 46 27 46 41 0 6 -7 2 -15
-8 -8 -11 -15 -15 -15 -9 0 13 22 32 35 30 11 -2 52 77 109 211 22 51 41 90
43 88 7 -6 -70 -184 -124 -286 -30 -58 -79 -142 -109 -187 -30 -44 -54 -85
-54 -90 0 -4 -9 -19 -19 -32 l-19 -25 -83 73 c-46 40 -130 107 -186 149 -56
42 -101 78 -99 79 1 2 27 -1 56 -7 60 -11 121 -13 145 -4 45 18 218 262 299
422 38 76 44 116 21 146 -12 16 -17 17 -30 6 -19 -16 -19 -39 0 -46 8 -4 15
-10 15 -15 0 -6 -36 -70 -81 -144 -72 -122 -82 -135 -103 -129 -30 7 -45 -15
-22 -31 15 -12 12 -20 -36 -94 l-53 -80 -65 5 c-36 3 -91 13 -124 21 -47 13
-62 14 -78 4 -13 -8 -23 -9 -32 -2 -6 5 -84 53 -171 105 -88 53 -167 100 -175
105 -11 7 -7 10 18 10 27 1 36 7 50 33 24 45 67 88 89 88 10 0 35 5 57 11 35
10 38 13 32 40 -4 23 4 45 38 102 67 111 67 109 -6 153 -35 20 -64 38 -66 39
-2 2 8 18 21 38 13 19 38 77 57 128 18 52 46 109 62 128 16 18 37 49 46 67 19
42 32 28 32 -34 0 -49 19 -54 31 -9 6 22 72 150 85 166 2 2 9 -1 16 -6 21 -16
88 -24 82 -9 -5 12 54 62 62 53 3 -3 1 -29 -4 -58 l-10 -54 27 35 c14 19 43
53 63 75 20 23 48 61 62 86 l26 44 0 -67 c0 -73 -12 -115 -38 -134 -9 -7 -14
-15 -11 -18 10 -10 72 37 95 72 l22 32 4 -40 c2 -22 -1 -45 -6 -50 -16 -16 2
-24 20 -9 16 13 16 8 9 -65 -6 -65 -16 -100 -60 -195 -29 -64 -63 -145 -75
-180 l-21 -64 30 -48 30 -48 -20 -26 c-11 -14 -18 -25 -15 -25 8 0 116 132
116 143 0 4 -11 -4 -24 -19 l-23 -28 -25 29 -25 28 27 71 c27 71 118 277 146
329 9 15 24 51 34 80 l19 52 0 -82 c1 -46 5 -83 9 -83 47 0 56 351 10 407 -5
7 -7 17 -3 23 13 20 -65 120 -193 249 -70 70 -149 147 -177 170 l-50 43 55
-38 c96 -67 195 -151 262 -223 62 -67 128 -172 128 -205 0 -24 31 -96 41 -96
23 0 6 77 -37 168 -25 53 -55 120 -65 147 -33 84 -60 132 -110 195 -27 33 -46
60 -43 60 3 0 -8 12 -25 26 -41 34 -60 27 -29 -11 14 -18 22 -39 20 -52 -6
-40 -20 -25 -43 45 -12 37 -30 79 -40 94 -11 14 -19 31 -19 37 0 7 -7 14 -15
17 -8 4 -15 17 -15 29 0 13 -5 27 -11 31 -6 3 -9 15 -6 25 7 28 -93 116 -189
167 -43 23 -75 42 -70 42 5 0 59 -26 120 -57z m-407 31 c-3 -3 -12 -4 -19 -1
-8 3 -5 6 6 6 11 1 17 -2 13 -5z m-1118 -129 c0 -5 -6 1 -14 15 -8 14 -14 34
-14 45 0 13 5 8 14 -15 7 -19 14 -39 14 -45z m-466 40 c1 -5 -14 -11 -33 -13
-33 -3 -34 -3 -15 12 22 17 45 17 48 1z m1530 -132 c-7 -2 -21 -2 -30 0 -10 3
-4 5 12 5 17 0 24 -2 18 -5z m-550 -10 c-13 -2 -33 -2 -45 0 -13 2 -3 4 22 4
25 0 35 -2 23 -4z m592 -3 c3 -6 -1 -7 -9 -4 -18 7 -21 14 -7 14 6 0 13 -4 16
-10z m-208 -6 c-3 -3 -12 -4 -19 -1 -8 3 -5 6 6 6 11 1 17 -2 13 -5z m-700
-143 c11 -5 62 -15 114 -22 105 -12 139 -23 139 -41 0 -19 -305 -18 -337 0
-29 16 -33 78 -5 84 19 5 60 -5 89 -21z m-922 -161 c5 -14 2 -20 -9 -20 -9 0
-16 -7 -16 -15 0 -14 -3 -14 -27 -1 -60 33 -60 27 -17 120 l39 85 12 -74 c6
-41 14 -84 18 -95z m1273 63 c5 -18 -23 -16 -39 3 -11 14 -10 15 11 12 13 -1
25 -9 28 -15z m1013 -30 c13 -16 12 -17 -3 -4 -17 13 -22 21 -14 21 2 0 10 -8
17 -17z m-2341 -83 l25 -19 -37 -73 c-41 -80 -51 -115 -79 -263 l-18 -100 4
135 c2 91 10 159 23 210 11 41 23 87 26 103 7 32 22 34 56 7z m1971 -40 l64
-60 -23 -20 c-13 -11 -54 -29 -90 -40 -77 -24 -124 -20 -174 14 -62 41 -45 79
50 117 31 12 66 28 77 36 11 7 22 13 26 13 3 0 35 -27 70 -60z m155 -165 c43
-64 41 -71 -34 -90 -85 -22 -166 10 -160 63 3 29 11 34 93 60 33 10 61 20 61
21 1 0 19 -24 40 -54z m-2122 -84 c-23 -79 -34 -223 -14 -176 6 13 9 15 9 5 1
-22 -16 -46 -26 -36 -16 16 -4 133 22 214 15 46 28 82 30 80 2 -2 -7 -41 -21
-87z m2356 24 c0 -8 -2 -15 -4 -15 -2 0 -6 7 -10 15 -3 8 -1 15 4 15 6 0 10
-7 10 -15z m353 -77 c2 -7 1 -22 -4 -33 -6 -16 -8 -16 -8 -3 -1 9 -4 23 -7 32
-3 9 -2 16 4 16 5 0 12 -6 15 -12z m-2696 -20 c-3 -8 -6 -5 -6 6 -1 11 2 17 5
13 3 -3 4 -12 1 -19z m-10 -65 c-3 -10 -5 -4 -5 12 0 17 2 24 5 18 2 -7 2 -21
0 -30z m2243 4 c0 -2 -15 -16 -32 -33 l-33 -29 29 33 c28 30 36 37 36 29z
m-143 -129 c-3 -8 -6 -5 -6 6 -1 11 2 17 5 13 3 -3 4 -12 1 -19z m-40 -20 c-3
-8 -6 -5 -6 6 -1 11 2 17 5 13 3 -3 4 -12 1 -19z m-126 -185 c-12 -20 -14 -14
-5 12 4 9 9 14 11 11 3 -2 0 -13 -6 -23z m-1973 -26 c3 -31 0 -37 -17 -37 -17
0 -20 6 -18 40 2 54 31 52 35 -3z m1752 -27 c11 -7 1 -10 -35 -9 -37 0 -45 3
-30 9 27 12 47 12 65 0z m260 -58 c-6 -26 -22 -67 -36 -91 -13 -24 -24 -50
-24 -57 0 -11 -5 -11 -25 -2 -25 11 -34 28 -15 28 18 0 10 22 -10 27 -11 3
-20 8 -20 10 0 12 135 150 139 141 1 -5 -2 -30 -9 -56z m-2140 -31 c0 -12 -20
-25 -27 -18 -7 7 6 27 18 27 5 0 9 -4 9 -9z m203 -35 c59 -13 111 -26 114 -30
13 -13 -4 -15 -38 -6 -18 6 -50 10 -69 10 -20 0 -40 4 -46 10 -5 5 -27 16 -49
24 -57 21 -35 19 88 -8z m211 -57 c-1 -27 -26 -182 -31 -188 -1 -2 -9 2 -18 9
-17 14 -14 56 12 153 16 57 39 73 37 26z m299 -160 c37 -68 83 -148 102 -176
20 -29 32 -53 28 -53 -5 0 -72 28 -150 62 l-141 61 21 43 c12 24 28 44 35 44
8 0 12 22 12 76 0 56 3 75 13 72 6 -3 42 -60 80 -129z m-576 79 c-3 -8 -6 -5
-6 6 -1 11 2 17 5 13 3 -3 4 -12 1 -19z m2003 -66 c0 -4 -10 -26 -22 -50 -24
-44 -44 -57 -73 -46 -14 6 -12 9 14 20 41 17 49 40 22 68 -30 31 -10 51 30 30
16 -8 29 -18 29 -22z m-1898 -25 c31 -7 60 -16 64 -20 12 -12 -17 -8 -86 13
-74 21 -63 25 22 7z m-35 -139 c-3 -7 -5 -2 -5 12 0 14 2 19 5 13 2 -7 2 -19
0 -25z m1266 -13 c9 -4 17 -14 17 -22 0 -12 -8 -10 -37 8 -65 38 -56 45 20 14z
m-202 -26 c-30 -49 -27 -79 10 -110 31 -25 32 -27 16 -50 -10 -13 -17 -36 -17
-51 0 -15 -4 -30 -10 -33 -5 -3 -10 -16 -10 -27 0 -34 -14 -11 -14 23 -1 30
-8 35 -134 101 l-133 70 24 27 c14 14 28 36 32 49 6 20 13 22 73 23 37 1 92 4
122 8 30 4 56 6 58 5 2 -1 -6 -17 -17 -35z m294 21 c11 -17 -5 -32 -21 -19 -8
6 -14 15 -14 20 0 12 27 11 35 -1z m-220 -43 c-8 -21 -18 -37 -20 -37 -8 0 6
53 18 68 17 21 18 7 2 -31z m594 -13 c-7 -8 -21 -20 -31 -25 -18 -10 -19 -9
-4 19 16 31 38 46 44 30 2 -5 -2 -16 -9 -24z m-293 0 c59 -35 56 -40 -6 -9
-27 14 -50 28 -50 30 0 9 12 5 56 -21z m-686 -94 c8 -5 11 -10 5 -10 -5 0 -17
5 -25 10 -8 5 -10 10 -5 10 6 0 17 -5 25 -10z m-440 -39 c0 -9 -4 -33 -9 -53
-5 -21 -5 -38 -1 -38 4 0 11 20 14 45 4 24 11 47 16 50 6 3 29 -3 53 -13 l44
-20 -10 -61 c-6 -40 -14 -61 -24 -61 -11 0 -133 30 -141 35 -1 1 5 34 14 73
13 50 21 69 31 65 7 -3 13 -13 13 -22z m537 1 c71 -28 113 -52 64 -37 -29 9
-148 63 -141 64 3 1 38 -12 77 -27z m276 -43 c-14 -24 -19 -27 -22 -13 -2 10
5 24 15 31 26 19 27 16 7 -18z m-586 -40 c227 -79 339 -122 350 -136 6 -8 24
-18 40 -22 24 -7 28 -12 25 -38 -2 -21 5 -40 23 -62 23 -27 33 -31 76 -31 39
0 55 5 72 23 l22 22 120 -60 c66 -33 157 -78 203 -98 l83 -38 -15 -24 c-21
-31 -20 -55 1 -55 19 0 83 -47 83 -61 0 -13 -38 -11 -95 7 -27 9 -72 15 -100
15 -32 0 -74 9 -117 27 -56 22 -71 34 -86 64 l-19 36 33 53 c19 29 31 55 29
58 -14 14 -78 -109 -69 -133 3 -9 3 -16 0 -16 -3 0 -61 23 -128 51 -130 55
-259 101 -265 95 -2 -2 2 -8 9 -13 20 -16 347 -153 380 -160 30 -6 49 -46 31
-64 -7 -7 -104 7 -289 41 -153 28 -287 49 -297 46 -10 -2 -37 2 -60 10 -23 9
-163 51 -311 95 -148 43 -271 81 -274 83 -2 3 5 31 16 63 12 32 23 71 27 87 6
28 6 28 63 21 87 -10 173 -32 337 -85 82 -26 166 -51 185 -54 19 -3 -48 22
-150 56 -102 35 -186 63 -188 64 -1 0 1 15 4 33 6 27 10 32 28 27 12 -3 50
-10 86 -16 61 -9 222 -59 353 -111 l58 -22 -6 -39 c-4 -21 -4 -38 -1 -38 10 0
37 73 32 87 -10 26 -210 103 -349 134 -58 12 -59 13 -53 42 3 16 6 38 6 48 0
11 2 19 4 19 3 0 44 -14 93 -31z m463 17 c0 -8 -4 -17 -9 -21 -12 -7 -24 12
-16 25 9 15 25 12 25 -4z m320 -62 c80 -41 138 -73 130 -70 -48 16 -275 126
-278 135 -2 6 -2 11 0 11 2 0 68 -34 148 -76z m142 -150 c70 -36 160 -87 202
-114 l75 -49 -36 -55 -36 -55 -96 51 c-53 28 -127 69 -164 90 -100 58 -321
164 -373 179 -24 7 -44 17 -44 21 0 24 36 78 52 78 10 0 23 8 29 19 11 17 19
15 138 -41 69 -33 183 -89 253 -124z m-440 24 c-19 -19 -14 -56 8 -68 27 -14
57 -4 65 21 4 10 11 19 16 19 16 0 10 -26 -12 -54 -26 -33 -71 -35 -93 -4 -26
37 -18 98 12 98 12 0 13 -3 4 -12z m48 -28 c0 -11 -7 -23 -15 -27 -21 -8 -28
1 -20 26 8 27 35 27 35 1z m200 -75 c50 -25 90 -47 90 -50 0 -5 -179 82 -189
91 -14 13 20 -1 99 -41z m553 -111 c41 -22 483 -326 520 -359 26 -23 29 -45 6
-45 -6 0 -36 20 -67 44 -63 48 -192 130 -152 96 14 -12 64 -53 112 -93 75 -62
85 -74 73 -86 -12 -12 -19 -10 -52 16 -53 42 -133 95 -133 89 0 -3 27 -26 60
-52 33 -25 57 -51 54 -55 -18 -30 -79 3 -286 153 -143 103 -248 176 -259 180
-12 4 69 128 83 128 5 0 23 -7 41 -16z m362 -14 c10 -11 16 -20 13 -20 -3 0
-13 9 -23 20 -10 11 -16 20 -13 20 3 0 13 -9 23 -20z m-1915 -29 c0 -6 -4 -13
-10 -16 -5 -3 -10 1 -10 9 0 9 5 16 10 16 6 0 10 -4 10 -9z m2090 -117 c0 -10
-38 18 -95 72 l-60 56 78 -62 c42 -34 77 -63 77 -66z m-1800 51 c79 -2 163
-12 271 -34 168 -33 343 -61 384 -61 21 0 25 5 25 30 0 17 2 30 4 30 2 0 24
-9 49 -20 56 -25 135 -41 143 -29 3 5 18 2 34 -6 16 -9 50 -18 75 -22 29 -4
49 -12 55 -24 6 -10 19 -21 30 -24 11 -3 20 -13 20 -21 0 -18 -5 -18 -33 0
-31 20 -235 41 -267 27 -23 -9 -21 -10 17 -10 23 -1 88 -6 143 -13 101 -11
102 -11 126 -48 35 -52 42 -167 13 -199 -14 -15 -25 -19 -32 -13 -17 14 -182
53 -248 59 l-56 6 -7 100 c-4 66 -3 104 5 113 8 10 5 12 -18 9 -15 -2 -31 -4
-35 -4 -5 -1 -8 -16 -8 -34 0 -21 -7 -36 -20 -45 -11 -7 -20 -18 -20 -26 0
-32 -24 -34 -119 -10 -115 29 -245 49 -456 69 -184 17 -486 34 -498 28 -5 -3
-1 -13 8 -23 15 -16 13 -70 -2 -70 -6 0 -186 71 -191 76 -2 1 13 45 35 98 46
114 25 106 278 99 99 -3 232 -6 295 -8z m1890 -25 c0 -10 -4 -21 -9 -25 -12
-7 -25 31 -16 45 9 15 25 2 25 -20z m-693 -140 c26 -11 62 -28 80 -37 37 -20
37 -18 -5 -146 -22 -69 -27 -77 -46 -71 -11 4 -37 7 -57 7 -35 0 -37 2 -43 36
-3 20 -6 51 -6 70 0 19 -5 49 -11 66 -10 25 -9 39 2 64 16 37 22 37 86 11z
m180 -187 c20 4 42 -3 76 -24 26 -16 52 -29 57 -29 6 0 10 -3 10 -6 0 -8 -56
-90 -99 -144 -19 -25 -37 -47 -39 -50 -6 -8 -22 25 -22 46 0 29 -34 57 -58 50
-13 -4 -22 -1 -26 9 -3 9 -14 15 -23 13 -10 -2 -26 5 -35 14 -10 10 -31 18
-47 18 -16 0 -35 7 -42 17 -13 15 -11 16 14 9 15 -3 47 -9 71 -12 l44 -6 28
61 c26 57 29 60 46 45 11 -11 27 -15 45 -11z m-1546 -210 c-5 -10 -17 -27 -26
-38 -16 -19 -16 -19 -4 5 13 27 29 50 36 50 2 0 -1 -8 -6 -17z m1340 -10 c15
-40 4 -52 -14 -16 -20 37 -21 43 -7 43 6 0 15 -12 21 -27z m127 5 c-3 -7 -11
-13 -18 -13 -7 0 -15 6 -17 13 -3 7 4 12 17 12 13 0 20 -5 18 -12z m-1558 -83
c0 -2 -13 -11 -30 -20 -38 -19 -40 -11 -2 9 31 17 32 18 32 11z m1673 -46 c14
-54 -21 -65 -45 -14 l-16 35 28 0 c20 0 29 -6 33 -21z m47 -24 c0 -27 -3 -32
-17 -29 -12 4 -19 16 -20 38 -1 29 1 33 18 29 14 -4 19 -14 19 -38z m58 -11
c2 -1 -4 -15 -14 -31 l-18 -28 26 24 26 23 16 -30 c21 -41 21 -76 0 -68 -9 3
-24 6 -35 6 -10 0 -19 5 -19 10 0 6 9 10 19 10 11 0 22 4 25 9 3 4 -6 6 -21 3
-37 -7 -64 30 -50 69 9 23 14 26 27 16 8 -6 16 -12 18 -13z m-57 -50 c24 -22
24 -51 0 -64 -38 -20 -48 -9 -67 66 -6 23 -4 24 21 20 15 -3 36 -13 46 -22z
m-2087 -39 c11 -8 17 -17 14 -20 -9 -9 -60 14 -53 25 8 13 16 12 39 -5z m-249
-104 c-7 -23 -25 -29 -25 -8 0 14 21 39 28 33 2 -3 1 -14 -3 -25z m-42 -194
c-6 -39 -23 -41 -23 -3 0 19 19 50 27 43 1 -2 0 -20 -4 -40z m1787 -237 c0 -5
-9 -10 -21 -10 -11 0 -17 5 -14 10 3 6 13 10 21 10 8 0 14 -4 14 -10z"/>
<path d="M1305 4070 c-4 -6 -3 -9 2 -8 4 2 8 -1 8 -7 0 -5 -4 -9 -8 -7 -5 1
-6 -2 -2 -8 9 -14 35 6 35 26 0 16 -26 19 -35 4z"/>
<path d="M1213 3870 c-33 -13 -28 -20 10 -14 28 4 27 2 -13 -14 -25 -11 -50
-17 -57 -15 -7 3 -13 -2 -13 -11 0 -13 5 -14 28 -5 15 6 51 20 80 31 29 11 50
24 47 29 -8 11 -53 11 -82 -1z"/>
<path d="M1184 3511 c-36 -22 -74 -67 -74 -89 0 -8 14 4 31 27 49 68 123 89
173 50 36 -28 34 -67 -4 -104 -16 -16 -30 -39 -30 -51 0 -27 -18 -42 -58 -50
-64 -13 -94 8 -114 81 -6 26 -7 24 -3 -10 8 -71 85 -108 157 -74 28 13 76 78
88 120 11 38 -8 92 -38 108 -32 17 -94 13 -128 -8z m140 -136 c-9 -14 -19 -23
-22 -20 -5 4 26 45 35 45 2 0 -4 -11 -13 -25z"/>
<path d="M1840 3507 c0 -8 -26 -24 -62 -37 -138 -50 -327 -165 -393 -240 -11
-13 21 8 70 47 106 82 168 118 290 168 96 39 124 58 106 69 -6 4 -11 1 -11 -7z"/>
<path d="M1260 3430 c0 -5 5 -10 10 -10 6 0 10 5 10 10 0 6 -4 10 -10 10 -5 0
-10 -4 -10 -10z"/>
<path d="M2013 3415 c0 -8 4 -12 9 -9 5 3 6 10 3 15 -9 13 -12 11 -12 -6z"/>
<path d="M1980 3405 c0 -8 4 -15 8 -15 5 0 9 7 9 15 0 8 -4 15 -9 15 -4 0 -8
-7 -8 -15z"/>
<path d="M2042 3408 c-7 -7 -12 -17 -12 -22 0 -6 5 -3 11 7 5 9 15 17 20 17 6
0 7 -5 3 -12 -4 -7 -3 -8 4 -4 7 4 12 11 12 17 0 13 -24 11 -38 -3z"/>
<path d="M2100 3405 c-7 -9 -10 -18 -6 -22 3 -3 6 -1 6 5 0 7 5 12 11 12 6 0
8 -7 5 -16 -3 -8 -2 -12 4 -9 12 8 13 32 1 39 -5 3 -14 -1 -21 -9z"/>
<path d="M1160 3395 c-16 -19 -12 -24 26 -29 16 -2 21 -1 12 1 -10 2 -18 9
-18 14 0 8 6 10 43 13 6 1 11 -5 10 -11 -3 -14 9 -17 20 -6 4 3 2 12 -4 20
-15 18 -74 17 -89 -2z"/>
<path d="M2410 3303 c116 -119 188 -256 195 -372 2 -29 8 -58 13 -63 5 -5 7 3
4 20 -2 18 2 33 12 42 14 11 15 15 3 29 -8 9 -20 34 -27 56 -34 106 -116 231
-210 318 -92 86 -87 68 10 -30z"/>
<path d="M1531 3291 c-21 -11 -29 -20 -21 -23 11 -3 10 -6 -3 -11 -9 -3 -17
-2 -17 4 0 6 -5 7 -11 4 -7 -5 -5 -15 5 -30 15 -22 14 -24 -32 -54 -26 -17
-43 -31 -39 -31 5 0 28 13 52 30 32 22 42 35 38 49 -4 16 3 22 37 32 32 10 46
10 61 1 26 -17 24 0 -4 26 -28 26 -23 26 -66 3z m24 -11 c-27 -12 -43 -12 -25
0 8 5 22 9 30 9 10 0 8 -3 -5 -9z"/>
<path d="M1755 3301 c-70 -11 -96 -21 -90 -32 4 -5 15 -4 28 3 12 7 75 14 142
16 106 3 130 1 205 -21 91 -27 116 -28 54 -2 -83 34 -242 51 -339 36z"/>
<path d="M1783 3263 c9 -2 23 -2 30 0 6 3 -1 5 -18 5 -16 0 -22 -2 -12 -5z"/>
<path d="M1718 3253 c7 -3 16 -2 19 1 4 3 -2 6 -13 5 -11 0 -14 -3 -6 -6z"/>
<path d="M1935 3251 c54 -5 108 -16 135 -28 90 -40 239 -218 316 -375 16 -32
32 -58 37 -58 12 0 -86 181 -132 244 -68 92 -161 179 -218 203 -24 10 -74 17
-133 19 l-95 2 90 -7z"/>
<path d="M2140 3241 c0 -5 9 -12 20 -16 42 -13 165 -162 219 -265 29 -55 54
-100 57 -100 7 0 -45 112 -79 169 -18 30 -69 92 -114 138 -75 77 -103 97 -103
74z"/>
<path d="M1550 3201 c0 -6 4 -13 10 -16 6 -3 7 1 4 9 -7 18 -14 21 -14 7z"/>
<path d="M1575 3200 c3 -5 8 -10 11 -10 2 0 4 5 4 10 0 6 -5 10 -11 10 -5 0
-7 -4 -4 -10z"/>
<path d="M1293 3133 c-53 -65 -96 -123 -91 -123 2 0 31 34 64 75 32 41 65 72
72 70 6 -2 12 2 12 10 0 26 -17 16 -57 -32z"/>
<path d="M1694 3156 c-31 -14 -48 -46 -78 -142 -9 -28 30 -84 74 -106 100 -51
220 18 220 125 0 106 -111 168 -216 123z m84 -23 c-10 -2 -26 -2 -35 0 -10 3
-2 5 17 5 19 0 27 -2 18 -5z m-113 -72 c-23 -45 -26 -38 -7 17 9 27 18 40 20
30 2 -9 -4 -30 -13 -47z m73 -24 c2 -18 -2 -29 -13 -34 -17 -6 -35 11 -35 32
1 6 5 2 11 -7 5 -10 14 -18 19 -18 17 0 11 39 -7 50 -16 10 -16 10 2 8 13 -2
21 -12 23 -31z m42 5 c1 -13 5 -10 16 8 15 25 15 25 8 -10 -3 -19 -8 -37 -11
-40 -8 -8 -33 32 -33 53 0 23 20 12 20 -11z m76 3 c1 -14 -2 -22 -7 -19 -5 3
-9 -1 -9 -10 0 -8 6 -17 13 -19 7 -3 5 -6 -5 -6 -14 -1 -18 7 -18 33 0 19 6
37 13 39 6 3 12 6 12 6 0 1 1 -10 1 -24z m-182 -40 c3 -9 0 -15 -9 -15 -8 0
-15 7 -15 15 0 8 4 15 9 15 5 0 11 -7 15 -15z"/>
<path d="M1374 3111 c-21 -27 -74 -133 -74 -148 1 -4 17 23 37 62 20 38 42 75
51 81 8 6 13 15 11 21 -2 5 -13 -2 -25 -16z"/>
<path d="M1403 3088 c-43 -54 -75 -177 -53 -203 7 -8 10 -22 6 -30 -3 -8 -1
-15 5 -15 6 0 8 21 3 59 -6 54 -3 67 25 127 30 64 36 89 14 62z"/>
<path d="M1284 2915 c-10 -53 9 -106 90 -255 60 -111 79 -137 105 -147 19 -8
31 -9 31 -3 0 6 -11 15 -24 20 -14 5 -37 31 -52 57 -15 26 -44 77 -65 113 -49
84 -82 184 -74 221 4 16 4 29 1 29 -3 0 -8 -16 -12 -35z"/>
<path d="M1428 2923 c7 -3 16 -2 19 1 4 3 -2 6 -13 5 -11 0 -14 -3 -6 -6z"/>
<path d="M1482 2913 c9 -10 19 -29 23 -43 12 -38 83 -190 89 -190 7 0 -25 81
-69 177 -19 40 -39 73 -46 73 -8 0 -7 -5 3 -17z"/>
<path d="M1388 2913 c7 -3 16 -2 19 1 4 3 -2 6 -13 5 -11 0 -14 -3 -6 -6z"/>
<path d="M2058 2899 c-27 -15 -22 -51 12 -89 17 -19 27 -26 21 -14 -5 11 -17
26 -25 34 -41 33 6 84 55 60 23 -11 23 -10 5 4 -23 18 -44 20 -68 5z"/>
<path d="M1039 2873 c-13 -16 -12 -17 4 -4 9 7 17 15 17 17 0 8 -8 3 -21 -13z"/>
<path d="M1152 2855 c0 -16 2 -22 5 -12 2 9 2 23 0 30 -3 6 -5 -1 -5 -18z"/>
<path d="M2208 2873 c6 -2 18 -2 25 0 6 3 1 5 -13 5 -14 0 -19 -2 -12 -5z"/>
<path d="M2261 2852 c13 -21 12 -25 -14 -48 -32 -28 -28 -32 8 -8 29 19 32 46
8 65 -15 13 -15 12 -2 -9z"/>
<path d="M1407 2853 c-13 -12 -7 -41 22 -106 40 -89 94 -172 126 -193 24 -15
28 -16 42 -2 14 14 9 27 -46 134 -79 152 -116 195 -144 167z m61 -45 c55 -81
130 -235 121 -249 -15 -24 -68 40 -120 146 -47 95 -60 145 -39 145 5 0 22 -19
38 -42z"/>
<path d="M1046 2833 c5 -5 12 -12 16 -18 4 -6 8 -2 8 8 0 9 -7 17 -17 17 -9 0
-12 -3 -7 -7z"/>
<path d="M866 2812 c-3 -5 8 -6 25 -4 16 2 29 6 29 8 0 8 -49 4 -54 -4z"/>
<path d="M933 2785 c0 -22 2 -30 4 -17 2 12 2 30 0 40 -3 9 -5 -1 -4 -23z"/>
<path d="M881 2784 c0 -11 3 -14 6 -6 3 7 2 16 -1 19 -3 4 -6 -2 -5 -13z"/>
<path d="M1761 2764 c6 -21 13 -41 16 -44 9 -9 -9 65 -18 74 -4 5 -3 -8 2 -30z"/>
<path d="M2365 2777 c-12 -27 1 -107 20 -126 15 -15 16 -14 10 12 -4 15 -10
51 -14 80 -6 38 -10 47 -16 34z"/>
<path d="M1180 2760 c6 -11 13 -20 16 -20 2 0 0 9 -6 20 -6 11 -13 20 -16 20
-2 0 0 -9 6 -20z"/>
<path d="M870 2749 c0 -5 12 -9 27 -9 30 0 27 9 -6 15 -11 2 -21 0 -21 -6z"/>
<path d="M1140 2740 c-8 -5 -10 -10 -5 -10 6 0 17 5 25 10 8 5 11 10 5 10 -5
0 -17 -5 -25 -10z"/>
<path d="M1166 2693 c5 -5 12 -12 16 -18 4 -6 8 -2 8 8 0 9 -7 17 -17 17 -9 0
-12 -3 -7 -7z"/>
<path d="M1046 2682 c-2 -4 -1 -14 5 -22 7 -12 9 -10 9 8 0 23 -5 28 -14 14z"/>
<path d="M1192 2647 c-8 -10 -6 -13 9 -14 19 -2 26 11 10 21 -5 3 -14 0 -19
-7z"/>
<path d="M1225 2600 c3 -5 8 -10 11 -10 2 0 4 5 4 10 0 6 -5 10 -11 10 -5 0
-7 -4 -4 -10z"/>
<path d="M1520 2553 c0 -7 10 -33 22 -58 18 -37 27 -45 50 -45 22 0 28 -5 28
-22 0 -34 36 -87 67 -99 33 -12 91 -3 116 18 25 23 22 76 -7 110 -37 44 -99
69 -132 54 -14 -6 -28 -21 -31 -32 -4 -15 -12 -19 -32 -17 -20 2 -33 15 -53
53 -15 28 -28 44 -28 38z m220 -83 c22 -11 44 -29 50 -39 15 -29 12 -68 -6
-75 -30 -12 -93 -6 -108 10 -22 22 -20 25 10 14 35 -14 94 -13 94 1 0 15 -40
79 -49 79 -10 0 -48 29 -38 30 4 0 25 -9 47 -20z"/>
<path d="M1745 2547 c48 -19 72 -40 99 -88 30 -52 35 -45 6 10 -25 50 -74 91
-108 90 l-27 -1 30 -11z"/>
<path d="M2532 2484 c-43 -30 -8 -105 36 -78 21 13 28 60 11 80 -15 18 -19 18
-47 -2z m46 -35 c4 -33 -20 -44 -42 -20 -21 23 -10 53 18 49 14 -2 22 -11 24
-29z"/>
<path d="M2547 2463 c-13 -12 -7 -33 8 -33 8 0 15 9 15 20 0 20 -11 26 -23 13z"/>
<path d="M1506 2478 c-8 -18 48 -122 79 -148 9 -7 -2 16 -24 52 -21 35 -41 76
-43 89 -4 20 -6 21 -12 7z"/>
<path d="M1873 2375 c0 -22 2 -30 4 -17 2 12 2 30 0 40 -3 9 -5 -1 -4 -23z"/>
<path d="M2392 2375 c-46 -7 -86 -15 -89 -19 -12 -11 52 -5 137 13 98 22 73
25 -48 6z"/>
<path d="M2238 2343 c6 -2 18 -2 25 0 6 3 1 5 -13 5 -14 0 -19 -2 -12 -5z"/>
<path d="M1982 2330 c-40 -5 -76 -11 -79 -14 -8 -8 11 -7 147 9 73 8 95 13 60
12 -30 0 -88 -3 -128 -7z"/>
<path d="M1793 2303 c9 -2 23 -2 30 0 6 3 -1 5 -18 5 -16 0 -22 -2 -12 -5z"/>
<path d="M1858 2303 c6 -2 18 -2 25 0 6 3 1 5 -13 5 -14 0 -19 -2 -12 -5z"/>
<path d="M3744 2874 c-8 -30 0 -191 9 -201 15 -14 22 12 26 93 3 89 -3 134
-19 134 -5 0 -13 -12 -16 -26z"/>
<path d="M3187 2676 c-60 -22 -57 -29 10 -22 l61 7 -24 -58 c-47 -115 -23
-141 31 -34 31 63 38 70 62 68 23 -2 27 2 25 18 -2 11 -6 22 -8 24 -12 12
-123 10 -157 -3z"/>
<path d="M3671 2672 c-6 -11 -11 -28 -11 -37 0 -9 -13 -50 -30 -92 -16 -41
-30 -87 -29 -101 1 -22 4 -18 15 18 7 25 27 83 43 130 27 78 30 83 36 55 11
-48 16 -53 10 -11 -6 50 -20 65 -34 38z"/>
<path d="M3692 2565 c0 -16 2 -22 5 -12 2 9 2 23 0 30 -3 6 -5 -1 -5 -18z"/>
<path d="M3084 2318 c-58 -64 -77 -88 -72 -88 3 0 29 27 58 60 55 63 65 83 14
28z"/>
<path d="M3081 2247 c-25 -28 -32 -41 -17 -27 26 23 71 80 64 80 -2 0 -23 -24
-47 -53z"/>
<path d="M3380 1605 c-14 -7 -33 -16 -42 -19 -22 -7 -24 -44 -3 -53 19 -7 54
23 66 56 12 30 9 33 -21 16z"/>
<path d="M1330 2407 c0 -15 4 -27 8 -27 4 0 14 -21 21 -47 7 -27 15 -42 18
-36 5 14 -24 113 -38 128 -5 5 -9 -2 -9 -18z"/>
<path d="M1316 2328 c-7 -43 2 -58 34 -57 10 0 8 4 -5 10 -17 8 -20 18 -17 50
5 52 -4 50 -12 -3z"/>
<path d="M1234 2011 c4 -5 1 -22 -5 -38 -6 -17 -6 -24 0 -18 16 16 25 65 11
65 -6 0 -9 -4 -6 -9z"/>
<path d="M1185 1760 c-2 -3 5 -6 15 -7 11 -1 22 2 24 5 3 4 -4 8 -15 8 -11 0
-22 -3 -24 -6z"/>
<path d="M1522 1653 c-20 -54 -32 -96 -28 -100 2 -2 13 24 25 58 21 62 23 95
3 42z"/>
<path d="M1578 1663 c7 -3 16 -2 19 1 4 3 -2 6 -13 5 -11 0 -14 -3 -6 -6z"/>
<path d="M2065 1619 c-9 -17 -15 -33 -13 -35 3 -2 12 12 21 31 21 43 13 47 -8
4z"/>
<path d="M2154 1599 c-3 -6 -1 -16 5 -22 9 -9 14 -8 21 3 9 15 4 30 -10 30 -5
0 -12 -5 -16 -11z"/>
<path d="M2201 1568 c-1 -10 6 -18 14 -18 8 0 15 8 15 18 0 13 -2 14 -9 3 -7
-11 -9 -11 -14 0 -4 10 -6 9 -6 -3z"/>
<path d="M1955 1900 c-7 -12 2 -12 30 0 19 8 19 9 -2 9 -12 1 -25 -3 -28 -9z"/>
<path d="M2110 1839 c19 -12 93 -49 165 -81 71 -32 162 -76 202 -98 40 -22 73
-37 73 -35 0 10 -123 76 -274 147 -197 92 -214 98 -166 67z"/>
<path d="M1984 1819 c31 -19 326 -158 326 -154 0 7 -291 151 -320 159 -22 6
-23 6 -6 -5z"/>
<path d="M2535 1540 c-3 -5 1 -10 9 -10 9 0 16 5 16 10 0 6 -4 10 -9 10 -6 0
-13 -4 -16 -10z"/>
<path d="M2685 1510 c3 -5 8 -10 11 -10 2 0 4 5 4 10 0 6 -5 10 -11 10 -5 0
-7 -4 -4 -10z"/>
<path d="M2755 1499 c5 -13 175 -135 175 -126 0 5 -119 100 -153 122 -20 13
-26 14 -22 4z"/>
<path d="M2663 1490 c2 -8 12 -16 23 -17 13 -2 15 -1 4 4 -8 3 -19 11 -23 17
-6 7 -7 6 -4 -4z"/>
<path d="M2726 1461 c-4 -7 -5 -15 -2 -18 9 -9 19 4 14 18 -4 11 -6 11 -12 0z"/>
<path d="M1502 1437 c-8 -10 -32 -112 -32 -137 0 -17 31 -4 35 14 23 108 22
154 -3 123z"/>
<path d="M2084 1305 c1 -8 7 -20 14 -27 9 -9 13 -7 18 6 4 11 1 22 -7 27 -20
13 -28 11 -25 -6z"/>
<path d="M2061 1248 c-1 -29 -16 -45 -26 -28 -4 6 -1 19 6 28 11 13 8 12 -9
-2 -29 -25 -28 -46 3 -46 28 0 39 17 32 52 -4 21 -4 21 -6 -4z"/>
<path d="M2220 1249 c-15 -26 -3 -98 17 -106 23 -9 35 12 35 57 -1 62 -30 90
-52 49z m33 -86 c-11 -28 -23 -11 -22 30 l1 42 13 -30 c7 -16 11 -35 8 -42z"/>
<path d="M2330 1240 c8 -5 20 -10 25 -10 6 0 3 5 -5 10 -8 5 -19 10 -25 10 -5
0 -3 -5 5 -10z"/>
<path d="M2476 1201 c-3 -5 1 -12 10 -15 13 -5 14 -9 4 -21 -10 -12 -9 -15 4
-15 11 0 16 9 16 30 0 29 -21 42 -34 21z"/>
<path d="M2400 1101 c0 -11 25 -21 51 -21 23 0 25 15 3 24 -23 9 -54 7 -54 -3z"/>
<path d="M2639 1259 c35 -16 66 -28 68 -25 6 6 -99 56 -116 55 -9 0 13 -14 48
-30z"/>
<path d="M2851 1077 c2 -1 15 -11 29 -22 l25 -20 -19 23 c-11 12 -24 22 -29
22 -6 0 -8 -1 -6 -3z"/>
<path d="M2807 1043 c-8 -7 21 -43 36 -43 5 0 3 8 -4 18 -11 14 -10 13 9 -2
23 -20 30 -32 10 -20 -7 4 -8 3 -4 -4 10 -16 26 -15 26 1 0 16 -41 57 -56 57
-6 0 -14 -3 -17 -7z"/>
<path d="M2747 1033 c-11 -10 -8 -25 4 -18 5 4 18 1 27 -7 32 -27 72 -48 72
-39 0 9 -78 71 -90 71 -4 0 -10 -3 -13 -7z"/>
<path d="M2825 940 c-3 -5 -2 -10 4 -10 5 0 13 5 16 10 3 6 2 10 -4 10 -5 0
-13 -4 -16 -10z"/>
<path d="M1165 1140 c-20 -40 -35 -73 -33 -76 3 -2 21 28 42 67 21 39 36 73
33 75 -2 3 -21 -27 -42 -66z"/>
<path d="M1696 1139 c-7 -49 -8 -51 -59 -74 -29 -12 -61 -33 -72 -46 -48 -56
-47 -61 5 -18 31 26 72 54 92 62 40 17 53 35 63 90 6 29 4 37 -8 37 -10 0 -16
-16 -21 -51z"/>
<path d="M1620 1173 c0 -5 5 -15 10 -23 8 -12 10 -11 10 8 0 12 -4 22 -10 22
-5 0 -10 -3 -10 -7z"/>
<path d="M1790 1142 c0 -9 234 -92 257 -92 16 0 27 40 15 52 -6 6 -18 8 -27 4
-13 -4 -14 -10 -5 -26 6 -11 9 -20 7 -20 -1 0 -45 17 -97 38 -108 44 -150 56
-150 44z"/>
<path d="M1629 1113 c-13 -16 -12 -17 4 -4 16 13 21 21 13 21 -2 0 -10 -8 -17
-17z"/>
<path d="M1235 975 c-62 -13 -135 -40 -135 -49 0 -3 21 2 48 10 59 18 149 41
182 47 22 4 21 4 -5 5 -16 0 -57 -5 -90 -13z"/>
<path d="M1860 972 c0 -13 90 -95 200 -183 58 -46 125 -102 150 -123 34 -30
30 -25 -15 23 -33 34 -102 94 -153 133 -51 39 -113 90 -138 114 -24 24 -44 40
-44 36z"/>
<path d="M1024 914 c-9 -21 -32 -57 -52 -78 l-37 -40 47 40 c26 22 52 54 59
72 16 48 2 53 -17 6z"/>
<path d="M2375 898 c2 -7 9 -58 15 -112 7 -65 17 -110 29 -130 11 -17 49 -87
85 -156 36 -69 66 -121 66 -117 0 5 -36 79 -80 166 -66 129 -80 165 -80 204 0
55 -18 145 -31 152 -5 4 -7 0 -4 -7z"/>
<path d="M2334 852 c1 -17 19 -17 24 0 3 10 1 10 -6 -1 -9 -12 -11 -12 -14 0
-3 9 -5 10 -4 1z"/>
<path d="M2355 790 c-3 -5 -1 -10 4 -10 6 0 11 5 11 10 0 6 -2 10 -4 10 -3 0
-8 -4 -11 -10z"/>
<path d="M2447 763 c-4 -3 -7 -19 -7 -35 0 -48 70 -66 82 -21 9 35 -9 63 -40
63 -16 0 -32 -3 -35 -7z m53 -32 c15 -29 12 -41 -10 -41 -18 0 -40 26 -40 49
0 19 39 12 50 -8z"/>
<path d="M1140 698 c-11 -12 -19 -27 -16 -34 2 -6 -18 -19 -45 -28 -27 -10
-52 -22 -55 -27 -3 -5 20 0 51 12 31 11 58 19 59 17 1 -1 -1 -82 -5 -178 l-7
-175 36 -107 c20 -60 39 -108 43 -108 5 0 7 6 4 12 -2 7 -16 69 -31 137 -25
114 -26 136 -20 258 4 73 9 147 13 163 4 24 2 30 -11 30 -15 0 -15 2 0 25 20
31 12 32 -16 3z"/>
<path d="M1336 638 c-3 -29 -5 -78 -5 -108 l1 -55 9 60 c18 129 19 155 11 155
-5 0 -12 -24 -16 -52z"/>
<path d="M2920 569 c0 -5 5 -7 10 -4 6 3 10 8 10 11 0 2 -4 4 -10 4 -5 0 -10
-5 -10 -11z"/>
<path d="M1456 539 c-16 -50 -46 -255 -45 -302 l2 -56 76 -25 c156 -51 373
-96 459 -96 35 0 46 25 16 37 -14 5 -16 18 -10 92 3 47 9 102 12 122 l6 37
-93 45 c-89 43 -333 138 -391 152 -19 5 -29 3 -32 -6z m219 -84 c94 -37 194
-76 223 -88 46 -17 53 -23 47 -41 -14 -48 -17 -174 -5 -210 6 -21 9 -40 6 -43
-7 -8 -86 9 -251 53 -234 63 -265 74 -265 95 0 19 31 181 35 187 4 4 144 -46
250 -88 44 -18 105 -40 135 -50 61 -19 68 -15 69 40 1 22 -11 30 -107 72 -140
62 -301 120 -312 113 -5 -3 -12 -22 -16 -41 -10 -53 -16 -34 -8 25 4 33 11 50
18 47 6 -2 88 -34 181 -71z"/>
<path d="M1464 355 c-3 -13 -3 -28 0 -34 10 -16 113 -51 182 -60 35 -5 93 -21
128 -35 36 -15 79 -29 96 -32 26 -6 30 -4 30 14 0 23 -46 47 -155 83 -33 10
-108 34 -167 53 l-108 35 -6 -24z"/>
<path d="M1466 264 c-11 -29 -6 -32 67 -45 39 -6 67 -14 60 -16 -6 -2 -34 0
-62 5 -29 5 -54 6 -57 1 -3 -5 -3 -9 1 -9 3 0 62 -11 131 -25 68 -14 141 -24
162 -23 20 0 56 -2 80 -6 37 -7 42 -6 42 12 0 15 -13 23 -67 37 -116 29 -113
29 -129 6 -16 -22 -49 -27 -74 -10 -11 7 -5 8 21 4 27 -5 38 -3 42 8 4 11 -18
22 -93 46 -113 36 -116 36 -124 15z m294 -96 c10 -6 7 -7 -10 -2 -14 3 -32 11
-40 16 -10 6 -7 7 10 2 14 -3 32 -11 40 -16z"/>
<path d="M1790 129 c60 -10 108 -9 55 2 -22 4 -53 8 -70 7 -22 0 -19 -3 15 -9z"/>
<path d="M1323 425 c0 -22 2 -30 4 -17 2 12 2 30 0 40 -3 9 -5 -1 -4 -23z"/>
<path d="M892 379 c-24 -17 -41 -33 -38 -36 3 -3 23 9 44 26 45 35 52 37 52
16 0 -20 40 -99 46 -92 3 3 -1 18 -9 34 -8 15 -17 40 -21 56 -8 34 -20 34 -74
-4z"/>
<path d="M3067 403 c-12 -11 -8 -23 8 -23 8 0 15 7 15 15 0 16 -12 20 -23 8z"/>
<path d="M3077 363 c-12 -11 -8 -23 8 -23 8 0 15 7 15 15 0 16 -12 20 -23 8z"/>
<path d="M3001 353 c11 -3 23 -27 33 -70 21 -81 42 -123 62 -123 14 0 14 2 1
15 -8 8 -20 38 -27 67 -21 90 -36 118 -62 117 -15 -1 -17 -3 -7 -6z"/>
<path d="M1344 295 c17 -41 35 -73 36 -63 0 11 -39 98 -45 98 -3 0 1 -16 9
-35z"/>
<path d="M2973 277 c3 -24 12 -57 19 -73 l13 -29 3 46 c3 50 -11 99 -29 99 -8
0 -10 -14 -6 -43z"/>
<path d="M2770 290 c0 -19 3 -21 12 -12 9 9 9 15 0 24 -9 9 -12 7 -12 -12z"/>
<path d="M2708 293 c-19 -5 -25 -33 -7 -33 19 0 50 21 44 31 -6 9 -9 10 -37 2z"/>
<path d="M1016 223 c9 -38 14 -42 14 -10 0 14 -5 29 -10 32 -7 4 -8 -3 -4 -22z"/>
<path d="M2737 220 c-38 -30 -38 -87 1 -131 23 -26 36 -32 70 -32 56 0 82 24
82 74 0 81 -94 135 -153 89z m79 -65 c29 -44 -4 -88 -45 -59 -23 17 -28 53 -9
72 18 18 36 14 54 -13z m51 -27 c-3 -8 -6 -5 -6 6 -1 11 2 17 5 13 3 -3 4 -12
1 -19z"/>
<path d="M3000 140 c0 -5 4 -10 9 -10 6 0 13 5 16 10 3 6 -1 10 -9 10 -9 0
-16 -4 -16 -10z"/>
<path d="M3100 35 c13 -14 30 -25 38 -25 12 0 9 7 -8 25 -13 14 -30 25 -38 25
-12 0 -9 -7 8 -25z"/>
<path d="M1210 36 c0 -8 5 -18 10 -21 6 -3 10 1 10 9 0 8 -4 18 -10 21 -5 3
-10 -1 -10 -9z"/>
</g>
</svg>
